<svg version="1.1" id="Layer_1" xmlns="http://www.w3.org/2000/svg" xmlns:xlink="http://www.w3.org/1999/xlink" x="0px" y="0px"
	 width="100%" viewBox="0 0 1024 1024" enable-background="new 0 0 1024 1024" xml:space="preserve">
<path fill="#000000" opacity="1.000000" stroke="none" 
	d="
M360.721710,795.717773 
	C345.906403,804.387085 334.101379,815.098877 329.372101,832.063293 
	C328.147003,836.457703 324.318939,838.189209 319.876068,837.522400 
	C315.383575,836.848083 313.441162,833.673706 313.330750,829.363708 
	C313.175262,823.293640 315.811554,818.028687 318.631042,812.934692 
	C328.162598,795.713989 343.075836,784.614014 360.661865,776.768372 
	C383.476898,766.589722 407.863647,761.880005 432.119080,756.837952 
	C436.735291,755.878357 439.415192,754.542175 438.793976,749.235413 
	C438.370636,745.618530 438.724854,741.912354 438.706085,738.246155 
	C438.665924,730.407898 438.659271,730.391968 431.025909,730.376709 
	C421.027100,730.356750 411.028259,730.361633 401.029419,730.362305 
	C387.031036,730.363220 373.032471,730.423340 359.034332,730.363892 
	C323.147827,730.211487 293.442963,703.960510 288.788330,668.345520 
	C287.429749,657.950317 287.421722,658.053650 276.888031,657.233887 
	C245.198822,654.767822 226.445282,630.772888 224.609940,607.078003 
	C222.976349,585.987610 222.658783,564.837280 224.816010,543.789062 
	C225.977142,532.459900 230.800369,522.300171 239.147659,514.239868 
	C242.096558,511.392395 242.603775,508.454498 242.376724,504.450653 
	C241.792709,494.152222 241.900421,483.810913 241.857498,473.486237 
	C241.793762,458.155121 241.675873,442.820831 241.935562,427.493896 
	C242.014008,422.864075 240.511963,420.426453 236.292801,418.303558 
	C214.299591,407.237579 212.064987,376.021515 232.041946,361.760132 
	C243.054581,353.898315 259.574982,354.132233 269.871979,362.295837 
	C280.943604,371.073578 285.497101,387.829468 280.274475,400.658539 
	C276.872803,409.014557 271.459503,415.536804 262.948273,419.034241 
	C260.233124,420.149994 259.221771,421.881409 259.231506,424.769806 
	C259.311279,448.433441 259.314758,472.097382 259.282135,495.761169 
	C259.276733,499.678223 260.549988,501.200958 264.755127,500.166931 
	C270.417847,498.774475 276.267395,498.244019 282.103149,498.733856 
	C287.050537,499.149139 288.592560,496.646210 288.661438,492.235504 
	C289.035492,468.282562 300.086792,449.891296 318.769958,435.798035 
	C331.660858,426.074036 346.400269,421.458038 362.615387,421.666138 
	C369.464203,421.754059 369.833954,421.425629 369.862122,414.787445 
	C369.969543,389.458832 369.917938,364.129211 370.129395,338.801666 
	C370.165405,334.488007 368.468018,332.623352 364.453400,331.523865 
	C339.914154,324.803314 315.428589,317.886688 290.924530,311.037659 
	C286.388214,309.769775 283.042084,307.294922 282.744995,302.218109 
	C282.492981,297.910736 285.668243,294.268524 290.954620,292.894531 
	C325.872559,283.818939 360.818848,274.852386 395.735291,265.771118 
	C425.186218,258.111389 454.612488,250.356628 484.042572,242.616974 
	C491.758575,240.587753 499.459351,238.498138 507.143982,236.353256 
	C509.794556,235.613449 512.330933,235.635086 515.003418,236.319550 
	C553.829041,246.263306 592.662842,256.175140 631.505554,266.051971 
	C664.866577,274.534882 698.241882,282.961548 731.608643,291.422058 
	C733.058594,291.789734 734.497742,292.210327 735.921509,292.669708 
	C740.036194,293.997406 742.266968,296.770111 742.315491,301.165192 
	C742.365601,305.701233 739.766785,308.283478 735.740662,309.459076 
	C726.002014,312.302734 716.254639,315.136383 706.427979,317.650452 
	C702.029663,318.775696 700.087219,320.768433 700.195557,325.590210 
	C700.494995,338.915314 700.373108,352.252045 700.256714,365.582794 
	C700.228882,368.763580 701.124634,371.204498 703.157410,373.717957 
	C708.302307,380.079559 709.327942,388.020355 710.188782,395.761780 
	C711.352844,406.229919 711.071594,406.251007 700.459229,406.212769 
	C694.293396,406.190552 688.124146,406.083679 681.962769,406.249695 
	C677.805542,406.361725 676.083801,404.550354 676.687683,400.539795 
	C678.164368,390.732330 678.437744,380.543274 685.581299,372.511505 
	C687.196350,370.695648 687.663574,368.420776 687.657288,365.997559 
	C687.625610,353.665710 687.695557,341.333466 687.615784,329.002045 
	C687.581909,323.763000 686.564941,322.971893 681.671448,324.287903 
	C673.640869,326.447601 665.675537,328.851562 657.635132,330.972412 
	C654.540161,331.788727 653.305908,333.432037 653.315857,336.635773 
	C653.398499,363.132324 653.443909,389.629517 653.319580,416.125671 
	C653.299255,420.453766 654.684509,421.942627 659.107361,421.759094 
	C681.960022,420.810791 701.146851,429.141876 716.653687,445.728363 
	C728.848572,458.772369 735.225647,474.440918 735.208618,492.346069 
	C735.203796,497.435425 736.567261,499.142792 741.663330,498.763123 
	C747.968933,498.293335 754.313904,498.650879 760.483582,500.387451 
	C763.598999,501.264313 764.692139,499.978149 764.684570,496.872070 
	C764.625549,472.708405 764.619385,448.544403 764.689575,424.380798 
	C764.697937,421.502441 763.230591,420.340515 760.838562,419.343689 
	C737.091248,409.447937 732.292664,380.461731 751.660034,363.502441 
	C761.384521,354.987091 772.491089,353.747803 784.289795,358.517639 
	C796.428833,363.425110 803.022156,372.920959 804.167969,385.602844 
	C805.597290,401.423462 798.372009,412.834534 783.894348,419.397675 
	C781.457153,420.502502 780.312622,421.933777 780.319214,424.682587 
	C780.384644,451.845856 780.384521,479.009369 780.331726,506.172699 
	C780.326294,508.956543 781.686707,510.835999 783.448547,512.702271 
	C794.674133,524.592957 800.700867,538.494019 800.400513,555.089905 
	C800.132141,569.916626 800.004761,584.761597 800.420044,599.581604 
	C801.188904,627.014648 780.543030,653.784058 750.395996,656.536621 
	C746.755066,656.869019 743.133423,657.422913 739.473450,657.335632 
	C736.489502,657.264587 735.419922,658.582458 735.315552,661.535400 
	C734.047058,697.423645 707.994507,725.172119 670.755005,730.166321 
	C668.949341,730.408508 667.096130,730.341675 665.265076,730.342590 
	C640.101318,730.355530 614.937622,730.343140 589.773865,730.366577 
	C583.575500,730.372375 583.356995,730.635803 583.341736,736.887146 
	C583.330811,741.386597 583.571594,745.901367 583.272949,750.380798 
	C583.027954,754.055420 584.218018,755.784607 587.969055,756.408691 
	C603.395691,758.975525 618.603088,762.575012 633.684570,766.700195 
	C657.157104,773.120605 679.039490,782.368530 695.356995,801.486145 
	C700.832214,807.900818 704.949463,815.079895 707.457642,823.133179 
	C708.094482,825.177917 708.595337,827.345947 708.657227,829.471924 
	C708.786804,833.922424 706.233948,836.797119 702.138855,837.802246 
	C698.111145,838.790771 694.346741,836.968506 693.106750,833.251221 
	C683.240906,803.675232 658.802917,792.381348 631.956238,784.208313 
	C617.160767,779.704102 602.032837,776.483704 586.775879,773.883667 
	C584.744019,773.537415 583.020691,773.339294 582.054382,775.336243 
	C575.543579,788.791748 563.100159,793.443787 549.931458,796.623474 
	C519.969238,803.858215 490.285187,803.225464 461.214478,792.215332 
	C452.914032,789.071655 445.894257,784.105774 441.865173,775.817322 
	C440.794495,773.614746 439.121826,772.996155 436.955170,773.462219 
	C411.128082,779.017212 384.905090,783.219849 360.721710,795.717773 
M693.982910,703.490173 
	C710.775330,692.123352 718.675537,676.154480 718.667908,656.027527 
	C718.647949,603.362549 718.651917,550.697571 718.699341,498.032623 
	C718.703125,493.852295 718.378540,489.746368 717.645569,485.633026 
	C713.107666,460.168518 690.003296,440.039703 664.136963,439.252411 
	C651.149597,438.857117 638.154480,438.707275 625.162415,438.474884 
	C618.140564,438.349243 611.207764,438.870361 604.476990,441.146851 
	C591.070007,445.681427 577.432190,449.413940 563.700012,452.830688 
	C538.628174,459.068878 513.287476,461.902100 487.572968,458.171326 
	C469.457001,455.543060 451.779388,450.832336 434.154694,445.903290 
	C425.385712,443.450928 417.046234,439.089020 407.693878,439.057709 
	C391.698578,439.004120 375.688904,438.777344 359.709839,439.332062 
	C331.076477,440.326019 305.785614,463.475677 305.491821,495.231812 
	C304.984619,550.058716 305.221710,604.894165 305.451965,659.724731 
	C305.500305,671.235962 308.906708,682.080933 316.146301,691.339294 
	C328.461761,707.088745 345.095551,713.627869 364.658386,713.631104 
	C460.988495,713.647156 557.318726,713.705566 653.648621,713.562561 
	C667.550354,713.541931 681.264282,711.754578 693.982910,703.490173 
M423.056458,423.295990 
	C431.642639,425.932495 440.230957,428.562134 448.814606,431.206909 
	C466.188416,436.559998 483.967499,440.127869 502.043884,441.556061 
	C523.326660,443.237640 544.054626,439.085449 564.669739,434.125732 
	C587.684082,428.588776 609.831543,420.363708 632.326111,413.204895 
	C636.348389,411.924835 637.782532,409.982635 637.741516,405.732300 
	C637.539185,384.744507 637.666626,363.753662 637.617065,342.764008 
	C637.613037,341.044373 638.309570,339.058563 636.645630,337.771362 
	C635.262451,337.207062 634.198975,337.894287 633.106689,338.190033 
	C595.070374,348.487183 557.020203,358.734070 519.027344,369.189178 
	C513.219910,370.787292 507.717346,371.023773 501.926331,369.378326 
	C486.575989,365.016602 471.167236,360.860199 455.778046,356.635529 
	C434.620972,350.827393 413.444763,345.087952 392.314545,339.183868 
	C387.984131,337.973877 386.358093,339.575439 386.368744,343.682373 
	C386.423553,364.832123 385.992340,385.986053 387.058594,407.127350 
	C387.217682,410.281616 388.560608,411.821167 391.544373,412.771240 
	C401.844635,416.050964 412.067322,419.574493 423.056458,423.295990 
M654.651123,299.689880 
	C666.661804,299.741180 678.642517,302.499115 691.182007,301.109467 
	C690.129150,298.878265 688.982361,298.625000 687.858521,298.340149 
	C674.804138,295.031464 661.751221,291.716919 648.694397,288.417877 
	C607.612122,278.037506 566.493286,267.798523 525.471741,257.183594 
	C516.134521,254.767426 507.581451,254.090988 497.813232,256.745331 
	C443.263824,271.568237 388.469604,285.489807 333.774506,299.778717 
	C331.819733,300.289429 329.432892,300.236450 328.140289,302.505524 
	C330.074341,304.463806 332.643860,304.745850 334.989166,305.387695 
	C391.119110,320.748993 447.269318,336.036346 503.386322,351.444702 
	C508.055511,352.726746 512.416809,352.720276 517.091003,351.456665 
	C555.609497,341.043518 594.169861,330.785004 632.711731,320.458099 
	C637.660034,319.132294 642.575256,317.683075 647.505859,316.291046 
	C647.447266,315.851990 647.388733,315.412933 647.330139,314.973907 
	C640.076599,314.426514 632.828918,313.779114 625.568237,313.353027 
	C611.458923,312.525024 597.338196,311.889648 583.229614,311.049774 
	C563.163940,309.855316 543.105042,308.547028 523.043030,307.291290 
	C520.512146,307.132874 518.160522,307.660767 515.757019,308.578979 
	C509.832458,310.842407 503.974884,309.007629 500.715240,304.190704 
	C497.786072,299.862030 498.048309,294.534515 501.375244,290.783112 
	C505.321899,286.332947 510.884552,285.480133 516.876099,288.505646 
	C518.958740,289.557281 520.937988,290.573181 523.396240,290.742676 
	C541.128784,291.965454 558.846497,293.403656 576.579712,294.615265 
	C602.287292,296.371796 628.004028,297.995056 654.651123,299.689880 
M566.237122,765.391785 
	C567.193420,755.755676 566.225891,746.085815 566.723816,736.451843 
	C566.960510,731.871277 565.358215,730.212158 560.761292,730.300781 
	C549.603088,730.516052 538.437744,730.360840 527.275269,730.359924 
	C505.283447,730.358154 483.291138,730.437927 461.300262,730.295410 
	C456.780609,730.266174 455.016937,731.776978 455.264893,736.415649 
	C455.593445,742.562439 455.587555,748.751770 455.290405,754.901794 
	C454.785156,765.358521 459.108917,772.473572 468.988525,776.114319 
	C470.703583,776.746399 472.382538,777.502197 474.134430,778.004639 
	C492.076996,783.149963 510.345154,785.060059 528.868835,782.497437 
	C538.888123,781.111328 548.952332,779.460632 558.136780,774.733154 
	C561.803101,772.846008 564.856689,770.388306 566.237122,765.391785 
M735.403076,518.147034 
	C735.386230,557.277344 735.411621,596.407776 735.286865,635.537781 
	C735.274414,639.447815 736.561951,640.695679 740.465759,640.759827 
	C764.986023,641.162659 783.532104,623.320435 783.654175,598.874329 
	C783.726562,584.388062 783.729492,569.900818 783.656921,555.414551 
	C783.551086,534.279175 769.945862,518.343811 749.141663,515.638489 
	C744.739624,515.066101 739.627686,513.323547 735.403076,518.147034 
M288.604187,531.574036 
	C288.556122,527.912842 288.553864,524.250244 288.446014,520.590820 
	C288.354370,517.479919 286.774780,515.752258 283.590332,515.324951 
	C261.373077,512.343628 241.543564,529.169495 241.290741,551.563171 
	C241.095215,568.884888 241.365479,586.211365 241.284180,603.535095 
	C241.263260,607.992493 242.344925,612.064514 244.138824,616.059387 
	C250.535034,630.303406 261.378235,638.384277 276.936768,640.419434 
	C285.551147,641.546265 288.663239,639.184692 288.660858,630.439636 
	C288.652069,597.797424 288.622742,565.155151 288.604187,531.574036 
M760.974731,399.512817 
	C765.062012,403.391022 769.790039,405.551025 775.472229,404.162170 
	C783.025818,402.315948 787.482117,396.881378 787.703369,389.695496 
	C787.920410,382.646118 783.366455,375.807892 777.111206,373.790466 
	C770.810669,371.758423 763.163879,374.336151 759.406494,379.758606 
	C754.994263,386.126099 755.340027,392.415009 760.974731,399.512817 
M240.179291,400.334991 
	C241.132919,400.997833 242.036438,401.751740 243.048401,402.308563 
	C249.142761,405.661835 255.499771,405.011353 260.568298,400.569336 
	C265.399567,396.335236 267.096375,389.409241 264.800323,383.295319 
	C262.461426,377.067291 256.884369,373.308594 250.232239,373.235077 
	C243.566956,373.161407 239.168900,376.567810 236.634644,382.320557 
	C233.836319,388.672729 234.936172,394.634399 240.179291,400.334991 
z"/>
<path fill="#000000" opacity="1.000000" stroke="none" 
	d="
M580.850281,593.858826 
	C574.505554,570.549133 577.117493,549.468445 594.406311,531.890686 
	C610.030640,516.005310 635.550537,516.741577 650.662415,533.126343 
	C669.316101,553.351257 671.437500,587.674805 655.411926,609.971375 
	C636.366760,636.469177 599.212952,633.051514 584.820435,603.447571 
	C583.368347,600.460693 582.240540,597.316162 580.850281,593.858826 
M615.670166,558.784790 
	C616.472168,561.040039 616.890747,563.482483 618.770142,565.546753 
	C620.081482,564.171448 621.056213,562.788269 622.354980,561.857239 
	C625.725464,559.441162 626.003662,557.069824 622.574524,554.582031 
	C621.980469,554.151062 621.833740,553.828003 621.674805,553.104431 
	C620.587158,548.151306 614.098328,543.730286 609.195129,544.451294 
	C602.117615,545.491882 596.543518,553.061157 597.347717,560.539062 
	C598.125854,567.773743 604.718201,572.750732 612.613892,572.041748 
	C613.404663,570.484558 610.703491,569.319336 611.542542,568.613464 
	C614.794495,565.877808 612.383850,564.109741 610.896790,562.024231 
	C610.062500,560.854187 609.911316,559.423340 610.920288,558.330872 
	C612.225647,556.917419 613.797241,556.838623 615.670166,558.784790 
M643.132690,599.427612 
	C644.585510,597.107117 644.457275,595.658508 641.347961,594.871521 
	C636.946106,593.757324 634.011292,595.533325 630.998474,598.595642 
	C634.598572,600.415588 634.598572,600.415588 638.218567,597.913452 
	C640.030273,597.848816 640.345276,601.220764 643.132690,599.427612 
z"/>
<path fill="#000000" opacity="1.000000" stroke="none" 
	d="
M430.312561,535.730103 
	C448.137268,556.544067 447.113861,591.119568 431.772522,611.263000 
	C415.443695,632.702881 386.089813,633.414856 369.049011,612.596985 
	C351.767426,591.484985 350.854706,559.244690 366.925446,537.364014 
	C382.590363,516.035889 411.962708,514.214233 430.312561,535.730103 
M390.875854,544.597961 
	C382.975037,544.309265 377.495178,547.865112 375.552765,554.541077 
	C373.554352,561.409424 375.865814,567.827759 381.461151,570.947021 
	C388.384766,574.806824 397.201324,571.987366 400.519684,564.852295 
	C404.268616,556.791382 400.338318,547.969727 390.875854,544.597961 
M414.953461,604.365662 
	C416.484039,603.395935 418.179443,602.609497 419.507782,601.414978 
	C421.666168,599.473938 422.675049,596.908264 420.848846,594.320068 
	C418.983154,591.675964 416.491150,589.536194 412.852661,590.763306 
	C408.788940,592.133911 408.973663,595.628479 409.009613,599.026489 
	C409.046875,602.546021 410.309845,604.790161 414.953461,604.365662 
z"/>
<path fill="#000000" opacity="1.000000" stroke="none" 
	d="
M460.744202,640.630615 
	C460.097015,635.242493 461.957916,631.597717 466.815277,630.122803 
	C471.859344,628.591309 475.057251,631.290588 477.303589,635.535217 
	C491.044342,661.499512 531.089966,661.199097 544.942261,635.472290 
	C548.030762,629.736267 552.630127,628.274292 557.362732,630.700012 
	C561.512939,632.827271 563.131042,637.854370 560.867920,643.287109 
	C557.491333,651.392944 551.273071,657.234985 544.358704,662.299072 
	C521.503723,679.038330 485.955048,674.723999 467.740967,653.069336 
	C464.724915,649.483582 462.140442,645.613281 460.744202,640.630615 
z"/>
</svg>